<svg width="61" height="60" viewBox="0 0 61 60" fill="none" xmlns="http://www.w3.org/2000/svg">
<path fill-rule="evenodd" clip-rule="evenodd" d="M20.4997 40C20.734 40.2344 20.8657 40.5523 20.8657 40.8838C20.8657 41.2152 20.734 41.5331 20.4997 41.7675L17.9997 44.2675C17.8844 44.3869 17.7464 44.4822 17.5939 44.5477C17.4414 44.6132 17.2774 44.6477 17.1114 44.6491C16.9455 44.6505 16.7809 44.6189 16.6272 44.5561C16.4736 44.4932 16.3341 44.4004 16.2167 44.283C16.0993 44.1657 16.0065 44.0261 15.9437 43.8725C15.8808 43.7189 15.8492 43.5543 15.8506 43.3883C15.8521 43.2223 15.8865 43.0583 15.9521 42.9058C16.0176 42.7533 16.1128 42.6153 16.2322 42.5L18.7322 40C18.9666 39.7657 19.2845 39.6341 19.6159 39.6341C19.9474 39.6341 20.2653 39.7657 20.4997 40ZM24.2497 43.75C24.484 43.9844 24.6157 44.3023 24.6157 44.6338C24.6157 44.9652 24.484 45.2831 24.2497 45.5175L21.7497 48.0175C21.6344 48.1369 21.4964 48.2322 21.3439 48.2977C21.1914 48.3632 21.0274 48.3977 20.8614 48.3991C20.6955 48.4005 20.5309 48.3689 20.3772 48.3061C20.2236 48.2432 20.0841 48.1504 19.9667 48.033C19.8493 47.9157 19.7565 47.7761 19.6937 47.6225C19.6308 47.4689 19.5992 47.3043 19.6006 47.1383C19.6021 46.9723 19.6365 46.8083 19.7021 46.6558C19.7676 46.5033 19.8628 46.3653 19.9822 46.25L22.4822 43.75C22.7166 43.5157 23.0345 43.3841 23.3659 43.3841C23.6974 43.3841 24.0153 43.5157 24.2497 43.75ZM16.7497 36.25C16.984 36.4844 17.1157 36.8023 17.1157 37.1338C17.1157 37.4652 16.984 37.7831 16.7497 38.0175L14.2497 40.5175C14.1335 40.6336 13.9955 40.7256 13.8437 40.7884C13.6919 40.8511 13.5293 40.8833 13.365 40.8832C13.2008 40.8831 13.0382 40.8507 12.8865 40.7877C12.7348 40.7247 12.597 40.6325 12.4809 40.5163C12.3649 40.4001 12.2728 40.2621 12.2101 40.1103C12.1474 39.9586 12.1151 39.7959 12.1152 39.6317C12.1154 39.4674 12.1478 39.3048 12.2108 39.1531C12.2737 39.0014 12.366 38.8636 12.4822 38.7475L14.9822 36.2475C15.2166 36.0132 15.5345 35.8816 15.8659 35.8816C16.1974 35.8816 16.5153 36.0132 16.7497 36.2475M32.0047 15.04C25.2392 18.3529 20.0379 24.1805 17.5122 31.2775L29.2222 42.99C36.3196 40.4638 42.1473 35.2614 45.4597 28.495L32.0047 15.04ZM34.6172 28.3825C34.6172 28.875 34.5202 29.3626 34.3317 29.8176C34.1433 30.2726 33.867 30.686 33.5188 31.0342C33.1706 31.3824 32.7572 31.6586 32.3022 31.8471C31.8473 32.0355 31.3596 32.1325 30.8672 32.1325C30.3747 32.1325 29.8871 32.0355 29.4321 31.8471C28.9771 31.6586 28.5637 31.3824 28.2155 31.0342C27.8673 30.686 27.5911 30.2726 27.4026 29.8176C27.2142 29.3626 27.1172 28.875 27.1172 28.3825C27.1172 27.388 27.5123 26.4342 28.2155 25.7309C28.9188 25.0276 29.8726 24.6325 30.8672 24.6325C31.8617 24.6325 32.8156 25.0276 33.5188 25.7309C34.2221 26.4342 34.6172 27.388 34.6172 28.3825Z" fill="#1A75BC"/>
<path d="M46.526 26.0258C47.7462 22.7836 48.3704 19.3475 48.3685 15.8833C48.3669 14.6866 48.2952 13.5083 48.1535 12.3483C46.9805 12.2071 45.8001 12.1353 44.6185 12.1333C41.0485 12.1333 37.631 12.7833 34.476 13.9733L46.526 26.0258ZM31.166 44.9308L33.7335 47.4983C33.9082 47.6734 34.1309 47.7928 34.3734 47.8413C34.616 47.8898 34.8674 47.8652 35.096 47.7707C35.3246 47.6763 35.52 47.5161 35.6575 47.3105C35.795 47.1049 35.8685 46.8631 35.8685 46.6158V42.5808C34.3698 43.4948 32.7967 44.2809 31.166 44.9308ZM15.571 29.3358C16.226 27.6941 17.0094 26.1266 17.921 24.6333H13.886C13.6385 24.6329 13.3964 24.7059 13.1904 24.8433C12.9844 24.9806 12.8239 25.176 12.7291 25.4046C12.6343 25.6333 12.6095 25.885 12.6579 26.1278C12.7063 26.3705 12.8258 26.5935 13.001 26.7683L15.571 29.3358Z" fill="#8DC641"/>
</svg>
