<svg width="60" height="60" viewBox="0 0 60 60" fill="none" xmlns="http://www.w3.org/2000/svg">
<path d="M43.1301 31.225C42.4201 37.1375 38.5476 39.5 36.8751 41.215C35.2001 42.935 35.5001 43.2775 35.6126 45.8C35.6314 46.1121 35.5861 46.4248 35.4794 46.7187C35.3728 47.0126 35.2071 47.2815 34.9925 47.5089C34.778 47.7364 34.5191 47.9175 34.232 48.041C33.9448 48.1646 33.6353 48.2281 33.3226 48.2275H26.6776C26.3652 48.227 26.0561 48.1628 25.7693 48.0389C25.4825 47.9149 25.2239 47.7339 25.0094 47.5067C24.7949 47.2796 24.6289 47.0111 24.5216 46.7176C24.4142 46.4242 24.3678 46.112 24.3851 45.8C24.3851 43.325 24.6151 42.75 23.1251 41.215C21.2251 39.315 16.7551 36.6325 16.7551 29.255C16.7437 27.4225 17.1121 25.6075 17.8369 23.9244C18.5618 22.2414 19.6275 20.7267 20.9668 19.4759C22.3061 18.2251 23.89 17.2653 25.6186 16.6571C27.3472 16.0488 29.1832 15.8053 31.0106 15.9418C32.8381 16.0783 34.6174 16.5918 36.2365 17.4502C37.8556 18.3085 39.2794 19.4929 40.418 20.9288C41.5566 22.3646 42.3855 24.0208 42.8522 25.7929C43.319 27.565 43.4137 29.4146 43.1301 31.225Z" fill="#1A75BC" stroke="#1A75BC" stroke-width="3.5" stroke-linecap="round" stroke-linejoin="round"/>
<path d="M26.1504 48.09V51.87C26.1504 52.9025 26.7254 53.75 27.4329 53.75H32.5654C33.2779 53.75 33.8504 52.9 33.8504 51.87V48.09M28.0504 21.74C26.5742 21.7407 25.1588 22.3275 24.1152 23.3716C23.0716 24.4156 22.4854 25.8313 22.4854 27.3075M48.3304 29.76H52.9154M43.7154 14.73L46.9679 11.4775M46.2154 42.5L49.4679 45.75M30.0004 5.9425V9.65M13.1004 11.475L16.3304 14.73M10.6004 45.75L13.8304 42.5M11.6704 29.76H7.08789" stroke="#8DC641" stroke-width="2.5" stroke-linecap="round" stroke-linejoin="round"/>
</svg>
